<?xml version="1.0" encoding="UTF-8"?>
<svg width="124px" height="34px" viewBox="0 0 124 34" version="1.1" xmlns="http://www.w3.org/2000/svg" xmlns:xlink="http://www.w3.org/1999/xlink">
    <!-- Generator: Sketch 55.2 (78181) - https://sketchapp.com -->
    <title>Logo</title>
    <desc>Created with Sketch.</desc>
    <defs>
        <path d="M0.197485714,4.00217143 C0.197485714,5.76822857 1.62822857,7.2 3.39428571,7.2 L3.39428571,7.2 C5.16034286,7.2 6.59314286,5.76822857 6.59314286,4.00217143 L6.59314286,4.00217143 C6.59314286,2.23508571 5.16034286,0.803314286 3.39428571,0.803314286 L3.39428571,0.803314286 C1.62822857,0.803314286 0.197485714,2.23508571 0.197485714,4.00217143" id="path-1"></path>
        <linearGradient x1="-0.0196413638%" y1="50.0005306%" x2="99.9953812%" y2="50.0005306%" id="linearGradient-3">
            <stop stop-color="#FF324D" offset="0%"></stop>
            <stop stop-color="#FF0069" offset="100%"></stop>
        </linearGradient>
        <path d="M0.794057143,3.57634286 C0.794057143,5.01017143 1.95531429,6.17142857 3.38914286,6.17142857 L3.38914286,6.17142857 C4.82091429,6.17142857 5.9832,5.01017143 5.9832,3.57634286 L5.9832,3.57634286 C5.9832,2.14457143 4.82091429,0.983314286 3.38914286,0.983314286 L3.38914286,0.983314286 C1.95531429,0.983314286 0.794057143,2.14457143 0.794057143,3.57634286" id="path-4"></path>
        <linearGradient x1="0.00981764123%" y1="49.9976546%" x2="99.9946779%" y2="49.9976546%" id="linearGradient-6">
            <stop stop-color="#FF324D" offset="0%"></stop>
            <stop stop-color="#FF0069" offset="100%"></stop>
        </linearGradient>
        <path d="M2.28445714,0.346628571 C1.728,0.3528 1.17257143,0.504 0.761142857,0.897942857 L0.761142857,0.897942857 C0.318857143,1.32274286 0.125485714,1.92137143 0.0493714286,2.51691429 L0.0493714286,2.51691429 C-0.0267428571,3.11965714 -0.00514285714,3.74091429 0.0483428571,4.34365714 L0.0483428571,4.34365714 C0.0987428571,4.94434286 0.176914286,5.51931429 0.508114286,6.03874286 L0.508114286,6.03874286 C1.03268571,6.85954286 1.9368,7.34297143 2.86148571,7.57337143 L2.86148571,7.57337143 C3.07337143,7.62582857 3.28525714,7.68034286 3.49817143,7.7328 L3.49817143,7.7328 C4.63885714,8.01668571 5.78982857,8.26148571 6.94491429,8.48057143 L6.94491429,8.48057143 C7.13005714,10.6693714 7.24937143,12.8643429 7.54045714,15.0418286 L7.54045714,15.0418286 C7.75645714,16.6525714 8.04445714,18.2746286 8.56285714,19.8185143 L8.56285714,19.8185143 C9.04937143,21.2667429 9.76834286,22.7201143 10.9522286,23.7250286 L10.9522286,23.7250286 C11.6413714,24.3092571 12.4776,24.6805714 13.3128,25.0004571 L13.3128,25.0004571 C14.8844571,25.6032 16.5394286,25.9950857 18.1892571,26.3098286 L18.1892571,26.3098286 C19.872,26.6286857 21.5814857,26.8313143 23.2899429,26.9290286 L23.2899429,26.9290286 C24.9510857,27.0236571 26.6163429,27.0308571 28.2661714,26.7942857 L28.2661714,26.7942857 C29.3976,26.6328 30.4878857,26.3180571 31.4321143,25.6618286 L31.4321143,25.6618286 C32.6910857,24.7906286 33.5777143,23.4905143 34.2051429,22.1132571 L34.2051429,22.1132571 C34.9056,20.5745143 35.3386286,18.9236571 35.6646857,17.2686857 L35.6646857,17.2686857 C35.9845714,15.6517714 36.2509714,13.9998857 36.4289143,12.3603429 L36.4289143,12.3603429 C36.5955429,10.8236571 36.4700571,9.12342857 35.2100571,8.05268571 L35.2100571,8.05268571 C33.9891429,7.01794286 32.3629714,7.11462857 30.8777143,7.26788571 L30.8777143,7.26788571 C29.1939429,7.44274286 27.5153143,7.62994286 25.8274286,7.74411429 L25.8274286,7.74411429 C24.1632,7.85725714 22.4969143,7.9344 20.8296,7.96834286 L20.8296,7.96834286 C17.6225143,8.0352 14.4185143,7.9344 11.2227429,7.65771429 L11.2227429,7.65771429 C10.3134857,7.57748571 9.40834286,7.47977143 8.5032,7.36662857 L8.5032,7.36662857 C8.50114286,7.34708571 8.49805714,7.32651429 8.49497143,7.30594286 L8.49497143,7.30594286 C8.3088,5.96674286 8.11645714,4.60388571 7.71531429,3.30891429 L7.71531429,3.30891429 C7.4304,2.38834286 6.93257143,1.55108571 6.06342857,1.07382857 L6.06342857,1.07382857 C5.49462857,0.761142857 4.85074286,0.637714286 4.21302857,0.559542857 L4.21302857,0.559542857 C3.63394286,0.488571429 3.04045714,0.3744 2.45931429,0.349714286 L2.45931429,0.349714286 C2.42537143,0.347657143 2.3904,0.347657143 2.35542857,0.346628571 L2.35542857,0.346628571 L2.28445714,0.346628571 Z M2.61462857,5.28377143 C2.06022857,5.15725714 1.42662857,4.86617143 1.20342857,4.29017143 L1.20342857,4.29017143 C1.09234286,4.00628571 1.0872,3.66788571 1.06765714,3.36754286 L1.06765714,3.36754286 C1.044,3.0168 1.05017143,2.65988571 1.12114286,2.31428571 L1.12114286,2.31428571 C1.1736,2.0592 1.26925714,1.75988571 1.51302857,1.62617143 L1.51302857,1.62617143 C1.76605714,1.48731429 2.0952,1.54285714 2.36468571,1.59634286 L2.36468571,1.59634286 C2.99005714,1.7208 3.70594286,1.73005714 4.2768,2.03965714 L4.2768,2.03965714 C4.53908571,2.18365714 4.73245714,2.40582857 4.85794286,2.67531429 L4.85794286,2.67531429 C4.90731429,2.77817143 4.98342857,2.95405714 4.99268571,3.04354286 L4.99268571,3.04354286 C5.00914286,3.19268571 5.06982857,3.34697143 5.10171429,3.49302857 L5.10171429,3.49302857 C5.1624,3.78205714 5.21074286,4.07211429 5.25291429,4.36422857 L5.25291429,4.36422857 C5.31874286,4.83325714 5.37222857,5.30537143 5.42057143,5.77748571 L5.42057143,5.77748571 C4.48045714,5.63657143 3.54548571,5.472 2.61462857,5.28377143 L2.61462857,5.28377143 Z M13.8445714,21.3706286 C12.9589714,20.88 12.4364571,19.8792 12.0579429,18.9812571 L12.0579429,18.9812571 C11.6053714,17.9084571 11.3153143,16.7688 11.0766857,15.6301714 L11.0766857,15.6301714 C10.6673143,13.6697143 10.4286857,11.6804571 10.1694857,9.69531429 L10.1694857,9.69531429 C11.0406857,9.84034286 11.916,9.96994286 12.7902857,10.0892571 L12.7902857,10.0892571 C15.4851429,10.4554286 18.1974857,10.6848 20.916,10.7897143 L20.916,10.7897143 C23.8217143,10.9028571 26.7222857,10.8524571 29.6238857,10.6734857 L29.6238857,10.6734857 C30.2153143,10.6374857 30.8314286,10.548 31.4197714,10.6601143 L31.4197714,10.6601143 C31.6625143,10.7064 31.9381714,10.7917714 32.0523429,11.0314286 L32.0523429,11.0314286 C32.1737143,11.2834286 32.1788571,11.5909714 32.1726857,11.8645714 L32.1726857,11.8645714 C32.1552,12.5454857 32.0029714,13.2212571 31.8888,13.8908571 L31.8888,13.8908571 C31.7643429,14.6232 31.6429714,15.3565714 31.5030857,16.0868571 L31.5030857,16.0868571 C31.2449143,17.4425143 30.9301714,18.8084571 30.3819429,20.0808 L30.3819429,20.0808 C30.1278857,20.6670857 29.8213714,21.2389714 29.4171429,21.7368 L29.4171429,21.7368 C29.1188571,22.1029714 28.7074286,22.5144 28.2456,22.6738286 L28.2456,22.6738286 C27.3877714,22.9916571 26.4651429,23.0801143 25.5579429,23.1253714 L25.5579429,23.1253714 C23.4072,23.2302857 21.2533714,23.0677714 19.1252571,22.7612571 L19.1252571,22.7612571 C18.0936,22.6141714 17.0670857,22.4208 16.0611429,22.1533714 L16.0611429,22.1533714 C15.5633143,22.0206857 15.0685714,21.8715429 14.5851429,21.6905143 L14.5851429,21.6905143 C14.4380571,21.636 14.292,21.5763429 14.148,21.5146286 L14.148,21.5146286 C14.1253714,21.5053714 13.9947429,21.4467429 14.0523429,21.4765714 L14.0523429,21.4765714 C13.9834286,21.4416 13.9124571,21.4086857 13.8445714,21.3706286 L13.8445714,21.3706286 Z" id="path-7"></path>
        <linearGradient x1="0.0001232904%" y1="49.9994122%" x2="99.9988785%" y2="49.9994122%" id="linearGradient-9">
            <stop stop-color="#FF324D" offset="0%"></stop>
            <stop stop-color="#FF0069" offset="100%"></stop>
        </linearGradient>
    </defs>
    <g id="Page-1" stroke="none" stroke-width="1" fill="none" fill-rule="evenodd">
        <g id="Home-2" transform="translate(-404.000000, -23.000000)">
            <g id="Header" transform="translate(-1.000000, 21.000000)">
                <g id="Menu">
                    <g id="Top">
                        <g id="Logo" transform="translate(405.000000, 1.000000)">
                            <g id="Group-9" transform="translate(43.200000, 4.282046)" fill="#3A001E">
                                <path d="M14.2602171,15.9851314 C14.2602171,13.2820457 12.37176,11.1343886 9.59564571,11.1343886 C6.81850286,11.1343886 5.00410286,13.2820457 5.00410286,15.9851314 C5.00410286,18.6882171 6.81850286,20.7988457 9.63267429,20.7988457 C12.37176,20.7988457 14.2602171,18.6882171 14.2602171,15.9851314 L14.2602171,15.9851314 Z M18.4814743,6.95221714 L18.4814743,24.9820457 L13.5947314,24.9820457 L13.5947314,23.5379314 C12.2617029,24.5006743 10.9286743,24.9820457 9.63267429,24.9820457 C4.41164571,24.9820457 0.598731429,21.0210171 0.598731429,15.9481029 C0.598731429,11.0983886 4.41164571,6.65496 9.63267429,6.91416 C11.4100457,7.06227429 12.7801029,7.54364571 13.5947314,8.39530286 L13.5947314,6.91416 L18.4814743,6.95221714 Z" id="Fill-1"></path>
                                <path d="M26.8140343,8.84036571 C28.1100343,7.61842286 29.6642057,6.95190857 31.5156343,6.91385143 C32.1070629,6.91385143 32.66352,6.95190857 33.2189486,7.06196571 L32.40432,11.9867657 C29.9234057,11.35728 28.0730057,11.9497371 26.8140343,13.8381943 L26.8140343,24.9817371 L21.7781486,24.9817371 L21.7781486,6.91385143 L26.8140343,6.91385143 L26.8140343,8.84036571 Z" id="Fill-3"></path>
                                <path d="M35.2933714,24.9829714 L40.3662857,24.9829714 L40.3662857,6.87805714 L35.2933714,6.87805714 L35.2933714,24.9829714 Z M37.7732571,0.0277714286 C39.5146286,0.0277714286 40.5144,1.1016 40.5144,2.58274286 C40.5144,4.02685714 39.4776,5.09965714 37.8113143,5.09965714 C36.1450286,5.09965714 35.1092571,4.02685714 35.1092571,2.58274286 C35.1092571,1.1016 36.1450286,0.0277714286 37.7732571,0.0277714286 L37.7732571,0.0277714286 Z" id="Fill-5"></path>
                                <path d="M48.6973029,24.9821486 L43.6243886,24.9821486 L43.6243886,6.87723429 L48.6973029,6.87723429 L48.6973029,8.54352 C49.8811886,7.43266286 51.3263314,6.91426286 53.0286171,6.91426286 C57.2118171,6.91426286 60.0640457,9.76546286 60.0640457,13.7645486 L60.0640457,24.9821486 L54.9911314,24.9821486 L54.9911314,15.0224914 C54.9911314,12.6536914 53.8432457,11.2466057 51.36336,11.1725486 C50.32656,11.2466057 49.4378743,12.0231771 48.6973029,13.4672914 L48.6973029,24.9821486 Z" id="Fill-7"></path>
                                <path d="M76.0227429,15.948 C76.0227429,13.2459429 74.1713143,11.0982857 71.3952,11.0982857 C68.6180571,11.0982857 66.7666286,13.2819429 66.7666286,15.948 C66.7666286,18.6881143 68.6180571,20.7987429 71.3952,20.7987429 C74.1713143,20.7987429 76.0227429,18.6881143 76.0227429,15.948 M71.4322286,6.72891429 C76.6522286,6.72891429 80.6513143,10.728 80.6513143,15.948 C80.6513143,21.1690286 76.6522286,25.1670857 71.4322286,25.1670857 C66.1752,25.1670857 62.2131429,21.1309714 62.2131429,15.948 C62.2131429,10.728 66.1752,6.72891429 71.4322286,6.72891429" id="Fill-8"></path>
                            </g>
                            <g id="Group-12" transform="translate(10.285714, 27.424903)">
                                <mask id="mask-2" fill="white">
                                    <use xlink:href="#path-1"></use>
                                </mask>
                                <g id="Clip-11"></g>
                                <path d="M0.197485714,4.00217143 C0.197485714,5.76822857 1.62822857,7.2 3.39428571,7.2 L3.39428571,7.2 C5.16034286,7.2 6.59314286,5.76822857 6.59314286,4.00217143 L6.59314286,4.00217143 C6.59314286,2.23508571 5.16034286,0.803314286 3.39428571,0.803314286 L3.39428571,0.803314286 C1.62822857,0.803314286 0.197485714,2.23508571 0.197485714,4.00217143" id="Fill-10" fill="url(#linearGradient-3)" mask="url(#mask-2)"></path>
                            </g>
                            <g id="Group-15" transform="translate(25.714286, 28.453474)">
                                <mask id="mask-5" fill="white">
                                    <use xlink:href="#path-4"></use>
                                </mask>
                                <g id="Clip-14"></g>
                                <path d="M0.794057143,3.57634286 C0.794057143,5.01017143 1.95531429,6.17142857 3.38914286,6.17142857 L3.38914286,6.17142857 C4.82091429,6.17142857 5.9832,5.01017143 5.9832,3.57634286 L5.9832,3.57634286 C5.9832,2.14457143 4.82091429,0.983314286 3.38914286,0.983314286 L3.38914286,0.983314286 C1.95531429,0.983314286 0.794057143,2.14457143 0.794057143,3.57634286" id="Fill-13" fill="url(#linearGradient-6)" mask="url(#mask-5)"></path>
                            </g>
                            <g id="Group-20" transform="translate(12.342857, 10.967760)" fill="#E6E7E8">
                                <path d="M21.3034629,0.967371429 C21.3034629,0.967371429 20.7140914,2.58428571 19.3707771,4.60234286 C19.3018629,5.00245714 19.2360343,5.40257143 19.15992,5.80062857 C18.9017486,7.15731429 18.5870057,8.52325714 18.0387771,9.79457143 C17.7857486,10.3808571 17.4782057,10.9537714 17.0750057,11.4505714 C16.77672,11.8177714 16.3642629,12.2292 15.9024343,12.3886286 C15.0456343,12.7054286 14.1230057,12.7938857 13.2158057,12.8391429 C11.0650629,12.9450857 8.91020571,12.7815429 6.78209143,12.4750286 C6.62574857,12.4534286 6.47249143,12.4225714 6.31820571,12.3968571 C4.56552,12.4729714 2.64106286,12.2919429 0.520148571,11.7478286 L0.638434286,13.4336571 L12.4392343,15.0588 L19.1084914,14.0322857 L21.4176343,7.87628571 L21.9298629,1.8036 L21.3034629,0.967371429 Z" id="Fill-16"></path>
                                <path d="M13.2156,12.8391429 C14.1228,12.7938857 15.0454286,12.7054286 15.9022286,12.3886286 C16.3650857,12.2292 16.7765143,11.8177714 17.0748,11.4505714 C17.4790286,10.9537714 17.7855429,10.3808571 18.0385714,9.79457143 C18.5878286,8.52325714 18.9015429,7.15731429 19.1597143,5.80062857 C19.2368571,5.40257143 19.3016571,5.00245714 19.3705714,4.60234286 C17.2136571,7.84234286 13.1004,12.1068 6.318,12.3968571 C6.47228571,12.4225714 6.62657143,12.4534286 6.78188571,12.4750286 C8.91,12.7815429 11.0648571,12.9450857 13.2156,12.8391429" id="Fill-18"></path>
                            </g>
                            <g id="Group-23" transform="translate(0.000000, 0.682046)">
                                <mask id="mask-8" fill="white">
                                    <use xlink:href="#path-7"></use>
                                </mask>
                                <g id="Clip-22"></g>
                                <path d="M2.28445714,0.346628571 C1.728,0.3528 1.17257143,0.504 0.761142857,0.897942857 L0.761142857,0.897942857 C0.318857143,1.32274286 0.125485714,1.92137143 0.0493714286,2.51691429 L0.0493714286,2.51691429 C-0.0267428571,3.11965714 -0.00514285714,3.74091429 0.0483428571,4.34365714 L0.0483428571,4.34365714 C0.0987428571,4.94434286 0.176914286,5.51931429 0.508114286,6.03874286 L0.508114286,6.03874286 C1.03268571,6.85954286 1.9368,7.34297143 2.86148571,7.57337143 L2.86148571,7.57337143 C3.07337143,7.62582857 3.28525714,7.68034286 3.49817143,7.7328 L3.49817143,7.7328 C4.63885714,8.01668571 5.78982857,8.26148571 6.94491429,8.48057143 L6.94491429,8.48057143 C7.13005714,10.6693714 7.24937143,12.8643429 7.54045714,15.0418286 L7.54045714,15.0418286 C7.75645714,16.6525714 8.04445714,18.2746286 8.56285714,19.8185143 L8.56285714,19.8185143 C9.04937143,21.2667429 9.76834286,22.7201143 10.9522286,23.7250286 L10.9522286,23.7250286 C11.6413714,24.3092571 12.4776,24.6805714 13.3128,25.0004571 L13.3128,25.0004571 C14.8844571,25.6032 16.5394286,25.9950857 18.1892571,26.3098286 L18.1892571,26.3098286 C19.872,26.6286857 21.5814857,26.8313143 23.2899429,26.9290286 L23.2899429,26.9290286 C24.9510857,27.0236571 26.6163429,27.0308571 28.2661714,26.7942857 L28.2661714,26.7942857 C29.3976,26.6328 30.4878857,26.3180571 31.4321143,25.6618286 L31.4321143,25.6618286 C32.6910857,24.7906286 33.5777143,23.4905143 34.2051429,22.1132571 L34.2051429,22.1132571 C34.9056,20.5745143 35.3386286,18.9236571 35.6646857,17.2686857 L35.6646857,17.2686857 C35.9845714,15.6517714 36.2509714,13.9998857 36.4289143,12.3603429 L36.4289143,12.3603429 C36.5955429,10.8236571 36.4700571,9.12342857 35.2100571,8.05268571 L35.2100571,8.05268571 C33.9891429,7.01794286 32.3629714,7.11462857 30.8777143,7.26788571 L30.8777143,7.26788571 C29.1939429,7.44274286 27.5153143,7.62994286 25.8274286,7.74411429 L25.8274286,7.74411429 C24.1632,7.85725714 22.4969143,7.9344 20.8296,7.96834286 L20.8296,7.96834286 C17.6225143,8.0352 14.4185143,7.9344 11.2227429,7.65771429 L11.2227429,7.65771429 C10.3134857,7.57748571 9.40834286,7.47977143 8.5032,7.36662857 L8.5032,7.36662857 C8.50114286,7.34708571 8.49805714,7.32651429 8.49497143,7.30594286 L8.49497143,7.30594286 C8.3088,5.96674286 8.11645714,4.60388571 7.71531429,3.30891429 L7.71531429,3.30891429 C7.4304,2.38834286 6.93257143,1.55108571 6.06342857,1.07382857 L6.06342857,1.07382857 C5.49462857,0.761142857 4.85074286,0.637714286 4.21302857,0.559542857 L4.21302857,0.559542857 C3.63394286,0.488571429 3.04045714,0.3744 2.45931429,0.349714286 L2.45931429,0.349714286 C2.42537143,0.347657143 2.3904,0.347657143 2.35542857,0.346628571 L2.35542857,0.346628571 L2.28445714,0.346628571 Z M2.61462857,5.28377143 C2.06022857,5.15725714 1.42662857,4.86617143 1.20342857,4.29017143 L1.20342857,4.29017143 C1.09234286,4.00628571 1.0872,3.66788571 1.06765714,3.36754286 L1.06765714,3.36754286 C1.044,3.0168 1.05017143,2.65988571 1.12114286,2.31428571 L1.12114286,2.31428571 C1.1736,2.0592 1.26925714,1.75988571 1.51302857,1.62617143 L1.51302857,1.62617143 C1.76605714,1.48731429 2.0952,1.54285714 2.36468571,1.59634286 L2.36468571,1.59634286 C2.99005714,1.7208 3.70594286,1.73005714 4.2768,2.03965714 L4.2768,2.03965714 C4.53908571,2.18365714 4.73245714,2.40582857 4.85794286,2.67531429 L4.85794286,2.67531429 C4.90731429,2.77817143 4.98342857,2.95405714 4.99268571,3.04354286 L4.99268571,3.04354286 C5.00914286,3.19268571 5.06982857,3.34697143 5.10171429,3.49302857 L5.10171429,3.49302857 C5.1624,3.78205714 5.21074286,4.07211429 5.25291429,4.36422857 L5.25291429,4.36422857 C5.31874286,4.83325714 5.37222857,5.30537143 5.42057143,5.77748571 L5.42057143,5.77748571 C4.48045714,5.63657143 3.54548571,5.472 2.61462857,5.28377143 L2.61462857,5.28377143 Z M13.8445714,21.3706286 C12.9589714,20.88 12.4364571,19.8792 12.0579429,18.9812571 L12.0579429,18.9812571 C11.6053714,17.9084571 11.3153143,16.7688 11.0766857,15.6301714 L11.0766857,15.6301714 C10.6673143,13.6697143 10.4286857,11.6804571 10.1694857,9.69531429 L10.1694857,9.69531429 C11.0406857,9.84034286 11.916,9.96994286 12.7902857,10.0892571 L12.7902857,10.0892571 C15.4851429,10.4554286 18.1974857,10.6848 20.916,10.7897143 L20.916,10.7897143 C23.8217143,10.9028571 26.7222857,10.8524571 29.6238857,10.6734857 L29.6238857,10.6734857 C30.2153143,10.6374857 30.8314286,10.548 31.4197714,10.6601143 L31.4197714,10.6601143 C31.6625143,10.7064 31.9381714,10.7917714 32.0523429,11.0314286 L32.0523429,11.0314286 C32.1737143,11.2834286 32.1788571,11.5909714 32.1726857,11.8645714 L32.1726857,11.8645714 C32.1552,12.5454857 32.0029714,13.2212571 31.8888,13.8908571 L31.8888,13.8908571 C31.7643429,14.6232 31.6429714,15.3565714 31.5030857,16.0868571 L31.5030857,16.0868571 C31.2449143,17.4425143 30.9301714,18.8084571 30.3819429,20.0808 L30.3819429,20.0808 C30.1278857,20.6670857 29.8213714,21.2389714 29.4171429,21.7368 L29.4171429,21.7368 C29.1188571,22.1029714 28.7074286,22.5144 28.2456,22.6738286 L28.2456,22.6738286 C27.3877714,22.9916571 26.4651429,23.0801143 25.5579429,23.1253714 L25.5579429,23.1253714 C23.4072,23.2302857 21.2533714,23.0677714 19.1252571,22.7612571 L19.1252571,22.7612571 C18.0936,22.6141714 17.0670857,22.4208 16.0611429,22.1533714 L16.0611429,22.1533714 C15.5633143,22.0206857 15.0685714,21.8715429 14.5851429,21.6905143 L14.5851429,21.6905143 C14.4380571,21.636 14.292,21.5763429 14.148,21.5146286 L14.148,21.5146286 C14.1253714,21.5053714 13.9947429,21.4467429 14.0523429,21.4765714 L14.0523429,21.4765714 C13.9834286,21.4416 13.9124571,21.4086857 13.8445714,21.3706286 L13.8445714,21.3706286 Z" id="Fill-21" fill="url(#linearGradient-9)" mask="url(#mask-8)"></path>
                            </g>
                        </g>
                    </g>
                </g>
            </g>
        </g>
    </g>
</svg>