<svg xmlns="http://www.w3.org/2000/svg" width="103" height="32" viewBox="0 0 103 32">
    <g fill="none" fill-rule="nonzero">
        <path stroke="#76737E" d="M7.502 30.933c-.262 0-.517-.003-.777-.009a11.737 11.737 0 0 1-1.605-.13 5.336 5.336 0 0 1-1.422-.435 4.645 4.645 0 0 1-1.2-.81 4.323 4.323 0 0 1-1.343-2.43 9.171 9.171 0 0 1-.142-1.49A67.201 67.201 0 0 1 1 24.901V6.522s.008-.55.013-.711c.006-.5.054-.997.142-1.49a4.348 4.348 0 0 1 1.338-2.434 4.78 4.78 0 0 1 1.204-.814c.447-.21.926-.355 1.42-.433.533-.08 1.07-.124 1.61-.13L7.502.5H95.75l.784.01c.534.006 1.068.05 1.596.13.498.078.982.225 1.434.435a4.641 4.641 0 0 1 2.074 1.926c.224.413.379.855.46 1.312.089.496.139.998.149 1.501.002.225.002.468.002.708.007.299.007.583.007.87v16.65c0 .29 0 .572-.007.856 0 .259 0 .496-.003.74-.01.494-.06.987-.147 1.474-.08.463-.236.91-.463 1.33-.227.407-.521.779-.873 1.102-.35.329-.756.604-1.201.813-.451.212-.934.36-1.432.438-.531.08-1.068.123-1.606.13a36.28 36.28 0 0 1-.77.008l-.931.001-87.32-.001z"/>
        <g fill="#FFF">
            <path d="M25.02 15.093a3.742 3.742 0 0 1 1.782-3.14 3.83 3.83 0 0 0-3.018-1.63c-1.27-.134-2.5.76-3.147.76-.66 0-1.656-.747-2.728-.725a4.019 4.019 0 0 0-3.382 2.062c-1.463 2.532-.372 6.253 1.029 8.3.7 1.001 1.52 2.12 2.591 2.081 1.05-.043 1.44-.669 2.707-.669 1.254 0 1.621.669 2.715.644 1.125-.018 1.834-1.007 2.51-2.018a8.288 8.288 0 0 0 1.149-2.339 3.616 3.616 0 0 1-2.208-3.326zM22.955 8.977a3.684 3.684 0 0 0 .843-2.64 3.748 3.748 0 0 0-2.426 1.255 3.506 3.506 0 0 0-.864 2.542 3.1 3.1 0 0 0 2.447-1.157z"/>
            <g>
                <path d="M38.277 20.264h-3.579l-.86 2.538h-1.515l3.39-9.39h1.575l3.39 9.39h-1.542l-.859-2.538zm-3.208-1.17h2.837l-1.399-4.12h-.039l-1.399 4.12zM47.999 19.38c0 2.127-1.139 3.494-2.857 3.494a2.32 2.32 0 0 1-2.154-1.198h-.032v3.39H41.55v-9.11h1.36v1.139h.025a2.428 2.428 0 0 1 2.18-1.21c1.738 0 2.883 1.373 2.883 3.495zm-1.444 0c0-1.386-.717-2.298-1.81-2.298-1.073 0-1.795.93-1.795 2.298 0 1.379.722 2.303 1.795 2.303 1.093 0 1.81-.905 1.81-2.303zM55.533 19.38c0 2.127-1.138 3.494-2.857 3.494a2.32 2.32 0 0 1-2.153-1.198h-.033v3.39h-1.405v-9.11h1.36v1.139h.026a2.428 2.428 0 0 1 2.18-1.21c1.737 0 2.882 1.373 2.882 3.495zm-1.444 0c0-1.386-.716-2.298-1.81-2.298-1.073 0-1.795.93-1.795 2.298 0 1.379.722 2.303 1.796 2.303 1.093 0 1.809-.905 1.809-2.303zM60.513 20.186c.104.931 1.008 1.542 2.244 1.542 1.185 0 2.037-.611 2.037-1.45 0-.73-.514-1.166-1.73-1.465l-1.218-.293c-1.724-.416-2.524-1.223-2.524-2.531 0-1.62 1.412-2.733 3.416-2.733 1.984 0 3.344 1.113 3.39 2.733H64.71c-.085-.937-.86-1.503-1.992-1.503-1.132 0-1.906.573-1.906 1.405 0 .664.495 1.055 1.705 1.354l1.034.254c1.927.455 2.727 1.23 2.727 2.603 0 1.756-1.4 2.856-3.625 2.856-2.082 0-3.488-1.074-3.579-2.772h1.439zM69.31 14.336v1.62h1.302v1.113h-1.301v3.774c0 .586.26.86.832.86.155-.003.31-.014.463-.033v1.106c-.258.048-.52.07-.78.065-1.387 0-1.927-.52-1.927-1.848v-3.924h-.996v-1.113h.996v-1.62h1.412zM71.366 19.38c0-2.154 1.269-3.508 3.247-3.508 1.985 0 3.247 1.354 3.247 3.508 0 2.16-1.256 3.507-3.247 3.507-1.99 0-3.247-1.348-3.247-3.507zm5.063 0c0-1.478-.678-2.35-1.816-2.35-1.139 0-1.815.879-1.815 2.35 0 1.483.676 2.348 1.815 2.348 1.138 0 1.816-.865 1.816-2.348zM79.019 15.956h1.34v1.166h.032a1.633 1.633 0 0 1 1.647-1.237c.162 0 .323.017.481.052v1.315a1.964 1.964 0 0 0-.63-.085 1.416 1.416 0 0 0-1.465 1.575v4.06h-1.405v-6.846zM88.998 20.791c-.19 1.243-1.4 2.096-2.948 2.096-1.991 0-3.227-1.334-3.227-3.475 0-2.147 1.243-3.54 3.168-3.54 1.894 0 3.085 1.301 3.085 3.377v.481h-4.835v.085a1.783 1.783 0 0 0 1.842 1.94 1.549 1.549 0 0 0 1.58-.964h1.335zm-4.75-2.043h3.422a1.646 1.646 0 0 0-1.679-1.737 1.733 1.733 0 0 0-1.743 1.737z"/>
            </g>
            <g>
                <path d="M34.893 6.345a1.996 1.996 0 0 1 2.123 2.242c0 1.441-.78 2.27-2.123 2.27h-1.63V6.345h1.63zm-.929 3.874h.85a1.418 1.418 0 0 0 1.489-1.623 1.422 1.422 0 0 0-1.488-1.613h-.85v3.236zM37.807 9.153a1.613 1.613 0 1 1 3.212 0 1.613 1.613 0 1 1-3.212 0zm2.52 0c0-.738-.331-1.17-.913-1.17-.584 0-.913.432-.913 1.17 0 .744.329 1.172.913 1.172.582 0 .913-.431.913-1.172zM45.287 10.857h-.697l-.704-2.508h-.053l-.7 2.508h-.69l-.94-3.405h.682l.61 2.598h.05l.7-2.598h.645l.7 2.598h.053l.607-2.598h.672zM47.011 7.452h.647v.541h.05a1.02 1.02 0 0 1 1.016-.607 1.107 1.107 0 0 1 1.179 1.267v2.204h-.672V8.822c0-.548-.238-.82-.735-.82a.781.781 0 0 0-.813.863v1.992h-.672V7.452zM50.973 6.123h.672v4.734h-.672zM52.58 9.153a1.613 1.613 0 1 1 3.21 0 1.613 1.613 0 1 1-3.21 0zm2.52 0c0-.738-.332-1.17-.914-1.17-.584 0-.913.432-.913 1.17 0 .744.329 1.172.913 1.172.582 0 .913-.431.913-1.172zM56.498 9.894c0-.613.457-.966 1.267-1.016l.922-.054v-.293c0-.36-.238-.563-.697-.563-.375 0-.635.138-.71.378h-.65c.068-.584.618-.96 1.39-.96.854 0 1.336.425 1.336 1.145v2.326h-.647v-.479h-.053c-.22.35-.61.554-1.023.535a1.028 1.028 0 0 1-1.135-1.019zm2.189-.29v-.286l-.832.054c-.468.031-.681.19-.681.49 0 .307.266.485.631.485a.803.803 0 0 0 .882-.744zM60.239 9.153c0-1.076.553-1.757 1.413-1.757.434-.02.841.212 1.044.597h.05v-1.87h.672v4.734h-.644v-.538h-.053c-.218.381-.63.61-1.069.594-.866 0-1.413-.682-1.413-1.76zm.694 0c0 .722.34 1.157.91 1.157.566 0 .916-.441.916-1.154 0-.71-.354-1.157-.916-1.157-.566 0-.91.438-.91 1.154zM66.198 9.153a1.613 1.613 0 1 1 3.211 0 1.613 1.613 0 1 1-3.21 0zm2.52 0c0-.738-.331-1.17-.913-1.17-.584 0-.913.432-.913 1.17 0 .744.329 1.172.913 1.172.582 0 .913-.431.913-1.172zM70.311 7.452h.647v.541h.05a1.02 1.02 0 0 1 1.016-.607 1.107 1.107 0 0 1 1.179 1.267v2.204h-.672V8.822c0-.548-.238-.82-.735-.82a.781.781 0 0 0-.813.863v1.992h-.672V7.452zM77 6.605v.863h.737v.566h-.738v1.75c0 .357.147.513.482.513.085 0 .17-.005.256-.015v.56c-.12.02-.243.032-.366.034-.747 0-1.044-.263-1.044-.92V8.034h-.54v-.566h.54v-.863h.672zM78.655 6.123h.666V8h.053a1.048 1.048 0 0 1 1.038-.61 1.122 1.122 0 0 1 1.173 1.27v2.198h-.673V8.824c0-.543-.253-.819-.728-.819a.795.795 0 0 0-.857.863v1.989h-.672V6.123zM85.502 9.938a1.382 1.382 0 0 1-1.475.985 1.546 1.546 0 0 1-1.573-1.758 1.57 1.57 0 0 1 1.57-1.779c.948 0 1.519.648 1.519 1.717v.234h-2.404v.038a.9.9 0 0 0 .907.975.816.816 0 0 0 .81-.412h.646zM83.14 8.84h1.72a.821.821 0 0 0-.839-.882.87.87 0 0 0-.881.882z"/>
            </g>
        </g>
    </g>
</svg>
