<svg xmlns="http://www.w3.org/2000/svg" xmlns:xlink="http://www.w3.org/1999/xlink" width="103" height="32" viewBox="0 0 103 32">
    <defs>
        <path id="a" d="M1.077.404C.859.634.73.992.73 1.456v16.587c0 .465.129.823.347 1.053l.055.055 9.292-9.292v-.219L1.132.35l-.055.055z"/>
        <path id="c" d="M.674 3.641v.22l3.097 3.097.07-.038 3.67-2.085c1.048-.597 1.048-1.572 0-2.167L3.841.583l-.07-.04L.675 3.641z"/>
        <path id="e" d="M.327 9.347c.345.366.916.412 1.558.047l10.957-6.225L9.674 0 .327 9.347z"/>
        <linearGradient id="f" x1="86.245%" x2="-50.146%" y1="30.901%" y2="136.019%">
            <stop offset="0%" stop-color="#FF3A44"/>
            <stop offset="100%" stop-color="#C31162"/>
        </linearGradient>
        <path id="h" d="M.327.404L9.674 9.75l3.168-3.168L1.884.358c-.301-.172-.587-.253-.84-.253a.958.958 0 0 0-.718.299"/>
    </defs>
    <g fill="none" fill-rule="evenodd">
        <path fill-rule="nonzero" stroke="#76737E" d="M98.5 31H4.75A3.761 3.761 0 0 1 1 27.25V4.75A3.761 3.761 0 0 1 4.75 1H98.5a3.761 3.761 0 0 1 3.75 3.75v22.5A3.761 3.761 0 0 1 98.5 31"/>
        <path fill="#FFF" d="M36.564 8.682c0 .629-.186 1.13-.559 1.503-.424.444-.975.666-1.653.666-.65 0-1.202-.225-1.656-.676-.455-.45-.682-1.009-.682-1.675 0-.667.227-1.225.682-1.675a2.265 2.265 0 0 1 1.656-.675c.322 0 .63.063.923.188.294.126.528.293.705.502l-.396.396c-.298-.355-.708-.534-1.232-.534-.474 0-.883.167-1.23.5-.345.334-.517.766-.517 1.298s.172.965.518 1.298c.346.333.755.5 1.23.5.502 0 .92-.168 1.256-.503.218-.219.344-.522.377-.912h-1.634v-.54h2.18c.021.117.032.23.032.34"/>
        <path stroke="#FFF" stroke-width=".2" d="M36.564 8.682c0 .629-.186 1.13-.559 1.503-.424.444-.975.666-1.653.666-.65 0-1.202-.225-1.656-.676-.455-.45-.682-1.009-.682-1.675 0-.667.227-1.225.682-1.675a2.265 2.265 0 0 1 1.656-.675c.322 0 .63.063.923.188.294.126.528.293.705.502l-.396.396c-.298-.355-.708-.534-1.232-.534-.474 0-.883.167-1.23.5-.345.334-.517.766-.517 1.298s.172.965.518 1.298c.346.333.755.5 1.23.5.502 0 .92-.168 1.256-.503.218-.219.344-.522.377-.912h-1.634v-.54h2.18c.021.117.032.23.032.34z"/>
        <path fill="#FFF" d="M40.02 6.803h-2.048V8.23h1.847v.54h-1.847v1.427h2.049v.553h-2.627v-4.5h2.627z"/>
        <path stroke="#FFF" stroke-width=".2" d="M40.02 6.803h-2.048V8.23h1.847v.54h-1.847v1.427h2.049v.553h-2.627v-4.5h2.627z"/>
        <path fill="#FFF" d="M42.459 10.75h-.578V6.803h-1.257V6.25h3.092v.553h-1.257z"/>
        <path stroke="#FFF" stroke-width=".2" d="M42.459 10.75h-.578V6.803h-1.257V6.25h3.092v.553h-1.257z"/>
        <path fill="#FFF" d="M45.953 10.75h.579v-4.5h-.578z"/>
        <path stroke="#FFF" stroke-width=".2" d="M45.953 10.75h.579v-4.5h-.578z"/>
        <path fill="#FFF" d="M49.096 10.75h-.578V6.803h-1.257V6.25h3.092v.553h-1.257z"/>
        <path stroke="#FFF" stroke-width=".2" d="M49.096 10.75h-.578V6.803h-1.257V6.25h3.092v.553h-1.257z"/>
        <path fill="#FFF" d="M53.334 9.792c.333.337.74.505 1.223.505.481 0 .89-.168 1.222-.505.333-.338.5-.768.5-1.292 0-.523-.167-.955-.5-1.291a1.652 1.652 0 0 0-1.222-.507c-.482 0-.89.17-1.223.507-.332.336-.5.768-.5 1.291 0 .524.168.954.5 1.292m2.873.376c-.443.455-.992.683-1.65.683-.658 0-1.208-.228-1.65-.683-.442-.454-.662-1.01-.662-1.668 0-.658.22-1.214.663-1.669.441-.454.991-.681 1.649-.681.654 0 1.202.228 1.647.684A2.3 2.3 0 0 1 56.87 8.5c0 .658-.221 1.214-.663 1.668"/>
        <path stroke="#FFF" stroke-width=".2" d="M53.334 9.792c.333.337.74.505 1.223.505.481 0 .89-.168 1.222-.505.333-.338.5-.768.5-1.292 0-.523-.167-.955-.5-1.291a1.652 1.652 0 0 0-1.222-.507c-.482 0-.89.17-1.223.507-.332.336-.5.768-.5 1.291 0 .524.168.954.5 1.292zm2.873.376c-.443.455-.992.683-1.65.683-.658 0-1.208-.228-1.65-.683-.442-.454-.662-1.01-.662-1.668 0-.658.22-1.214.663-1.669.441-.454.991-.681 1.649-.681.654 0 1.202.228 1.647.684A2.3 2.3 0 0 1 56.87 8.5c0 .658-.221 1.214-.663 1.668z"/>
        <path fill="#FFF" d="M57.681 10.75v-4.5h.704l2.187 3.5h.025l-.025-.867V6.25h.579v4.5h-.604L58.26 7.08h-.026l.026.867v2.803z"/>
        <path stroke="#FFF" stroke-width=".2" d="M57.681 10.75v-4.5h.704l2.187 3.5h.025l-.025-.867V6.25h.579v4.5h-.604L58.26 7.08h-.026l.026.867v2.803z"/>
        <path fill="#FFF" d="M81.202 23.5h1.399v-9.376h-1.399V23.5zm12.605-5.998l-1.604 4.065h-.048l-1.665-4.065h-1.507l2.497 5.68-1.424 3.161h1.46l3.847-8.841h-1.556zm-7.937 4.933c-.458 0-1.097-.23-1.097-.796 0-.723.796-1.002 1.484-1.002.614 0 .904.134 1.278.314a1.697 1.697 0 0 1-1.665 1.484zm.17-5.139c-1.014 0-2.063.447-2.497 1.436l1.242.519c.265-.52.76-.688 1.279-.688.723 0 1.459.434 1.471 1.206v.097a3.098 3.098 0 0 0-1.46-.362c-1.339 0-2.702.736-2.702 2.11 0 1.255 1.098 2.064 2.328 2.064.94 0 1.46-.422 1.785-.917h.049v.723h1.352V19.89c0-1.665-1.244-2.594-2.847-2.594zm-8.65 1.347H75.4V15.43h1.99c1.047 0 1.64.866 1.64 1.607 0 .727-.593 1.607-1.64 1.607zm-.035-4.52H74V23.5H75.4v-3.552h1.954c1.552 0 3.076-1.123 3.076-2.912s-1.525-2.912-3.076-2.912zm-18.286 8.314c-.967 0-1.776-.81-1.776-1.921 0-1.124.809-1.946 1.776-1.946.954 0 1.703.822 1.703 1.946 0 1.111-.75 1.92-1.703 1.92zm1.606-4.41h-.048c-.314-.375-.919-.714-1.679-.714-1.595 0-3.058 1.402-3.058 3.203 0 1.788 1.463 3.178 3.058 3.178.76 0 1.365-.339 1.68-.726h.047v.46c0 1.22-.652 1.872-1.703 1.872-.858 0-1.39-.616-1.607-1.135l-1.22.507c.35.846 1.28 1.885 2.827 1.885 1.643 0 3.033-.967 3.033-3.323v-5.727h-1.33v.52zm2.297 5.473h1.4v-9.376h-1.4V23.5zm3.467-3.093c-.036-1.233.955-1.86 1.667-1.86.557 0 1.028.278 1.185.676l-2.852 1.184zm4.35-1.063c-.266-.713-1.076-2.03-2.73-2.03-1.644 0-3.01 1.292-3.01 3.19 0 1.788 1.354 3.19 3.166 3.19 1.462 0 2.308-.894 2.659-1.414l-1.088-.725c-.363.531-.858.882-1.571.882s-1.22-.327-1.546-.967l4.265-1.764-.145-.362zm-33.981-1.051v1.353h3.238c-.096.761-.35 1.317-.737 1.703-.471.472-1.209.992-2.501.992-1.994 0-3.553-1.608-3.553-3.601 0-1.994 1.559-3.602 3.553-3.602 1.075 0 1.86.423 2.44.968l.955-.955c-.81-.773-1.885-1.366-3.395-1.366-2.731 0-5.027 2.224-5.027 4.955 0 2.73 2.296 4.954 5.027 4.954 1.474 0 2.585-.484 3.455-1.39.894-.894 1.172-2.151 1.172-3.166 0-.313-.024-.604-.072-.845h-4.555zm8.309 4.144c-.966 0-1.8-.798-1.8-1.933 0-1.148.834-1.934 1.8-1.934.966 0 1.8.786 1.8 1.934 0 1.135-.834 1.933-1.8 1.933zm0-5.124c-1.764 0-3.202 1.342-3.202 3.19 0 1.838 1.438 3.19 3.202 3.19s3.202-1.352 3.202-3.19c0-1.848-1.438-3.19-3.203-3.19zm6.985 5.124c-.967 0-1.8-.798-1.8-1.933 0-1.148.833-1.934 1.8-1.934.967 0 1.8.786 1.8 1.934 0 1.135-.833 1.933-1.8 1.933zm0-5.124c-1.764 0-3.202 1.342-3.202 3.19 0 1.838 1.438 3.19 3.202 3.19s3.202-1.352 3.202-3.19c0-1.848-1.438-3.19-3.202-3.19z"/>
        <g transform="translate(7.75 6.25)">
            <mask id="b" fill="#fff">
                <use xlink:href="#a"/>
            </mask>
            <path fill="#00D2FF" d="M1.077.404C.859.634.73.992.73 1.456v16.587c0 .465.129.823.347 1.053l.055.055 9.292-9.292v-.219L1.132.35l-.055.055z" mask="url(#b)"/>
        </g>
        <g transform="translate(17.5 12.25)">
            <mask id="d" fill="#fff">
                <use xlink:href="#c"/>
            </mask>
            <path fill="#FFC802" d="M.674 3.641v.22l3.097 3.097.07-.038 3.67-2.085c1.048-.597 1.048-1.572 0-2.167L3.841.583l-.07-.04L.675 3.641z" mask="url(#d)"/>
        </g>
        <g transform="translate(8.5 16)">
            <mask id="g" fill="#fff">
                <use xlink:href="#e"/>
            </mask>
            <path fill="url(#f)" d="M.327 9.347c.345.366.916.412 1.558.047l10.957-6.225L9.674 0 .327 9.347z" mask="url(#g)"/>
        </g>
        <g transform="translate(8.5 6.25)">
            <mask id="i" fill="#fff">
                <use xlink:href="#h"/>
            </mask>
            <path fill="#00F076" d="M.327.404L9.674 9.75l3.168-3.168L1.884.358c-.301-.172-.587-.253-.84-.253a.958.958 0 0 0-.718.299" mask="url(#i)"/>
        </g>
        <g>
            <path fill="#000" d="M21.272 19.099l-10.887 6.186c-.609.345-1.153.322-1.503.007l-.055.057.055.054v-.001c.35.315.894.338 1.503-.008l10.956-6.225-.07-.07z"/>
            <path fill="#000" d="M8.827 25.239c-.219-.231-.348-.59-.348-1.054v.11c0 .464.13.822.348 1.053l.055-.055-.055-.054zM25.01 16.974L21.272 19.1l.07.07 3.67-2.085c.524-.298.786-.69.786-1.083-.044.355-.31.703-.786.973"/>
            <path fill="#FFF" d="M10.385 6.717l14.626 8.31c.475.27.742.618.786.974 0-.392-.262-.785-.786-1.083l-14.626-8.31c-1.048-.596-1.906-.1-1.906 1.1v.109c0-1.2.858-1.695 1.906-1.1"/>
        </g>
    </g>
</svg>
