<?xml version="1.0" encoding="utf-8"?>
<!-- Generator: Adobe Illustrator 24.0.1, SVG Export Plug-In . SVG Version: 6.00 Build 0)  -->
<svg version="1.1" id="Layer_1" xmlns="http://www.w3.org/2000/svg" xmlns:xlink="http://www.w3.org/1999/xlink" x="0px" y="0px"
	 viewBox="0 0 209 45" style="enable-background:new 0 0 209 45;" xml:space="preserve">
<style type="text/css">
	.st0{fill-rule:evenodd;clip-rule:evenodd;fill:#FFFFFF;}
	.st1{filter:url(#Adobe_OpacityMaskFilter);}
	.st2{mask:url(#mask-2_1_);fill-rule:evenodd;clip-rule:evenodd;fill:#FFFFFF;}
</style>
<title>Group 18</title>
<desc>Created with Sketch.</desc>
<g id="Page-1">
	<g id="New-12grid" transform="translate(-855.000000, -23.000000)">
		<g id="Group-14">
			<g id="Group-18" transform="translate(855.000000, 23.000000)">
				<path id="Fill-1" class="st0" d="M22.9,2h13.4v0.8c-6.7,0-6.6,10.8-6.6,10.8H29c0,0,0-10.8-6.1-10.8V2z M14.1,33.2V34H0.7v-0.8
					c6.7,0,6.6-10.8,6.6-10.8h0.8C8.1,22.4,8,33.2,14.1,33.2L14.1,33.2z M11.2,2l18.6,23.5V34h-2.3L5.6,6C2.8,2.4,1.5,2.9,0.3,2.8V2
					H11.2z"/>
				<path id="Fill-3" class="st0" d="M57.8,27.6l0.8,0.4c-0.7,2.4-3.4,6-9.3,6c-5.9,0-9.9-5.6-9.9-10.9c0-6.1,3.8-10.6,9.4-11v0.7
					c-2.2,0.9-3.6,5.1-3.6,9h8.8c0-4.9-1.3-8.2-3.3-9V12c6,0.3,8.8,3.7,8.8,10.6H45.1c0.4,4.5,2.6,6.8,5.6,7.5
					C53.1,30.6,56.7,29.7,57.8,27.6"/>
				<path id="Fill-5" class="st0" d="M94.3,12v0.8c-0.8,0-3,0.1-5.5,6.9l-0.7-0.6c0.5-1.5,1.7-6.3-2.5-6.3V12H94.3z M81.1,15.7
					l5.1,10.8L83.8,33h-0.7l-8.4-18.3c-1-1.9-2.1-1.9-2.8-1.9V12h10.5v0.8C79.5,12.8,81.1,15.7,81.1,15.7L81.1,15.7z M68.7,15.7
					l5.1,10.8L71.4,33h-0.8c-7.8-17.1-8.5-18.3-8.5-18.3c-1-1.9-2.1-1.9-2.8-1.9V12h10.5v0.8C67.2,12.8,68.7,15.7,68.7,15.7
					L68.7,15.7z"/>
				<path id="Fill-7" class="st0" d="M104.9,12.8V12c4.5,0.1,6.5,1.3,6.5,1.3v5.1h-0.8C110,17,108.7,13.3,104.9,12.8 M104,33.2V34
					c-4.8-0.2-7.2-2.1-7.2-2.1v-5.8h0.8C98.2,27.8,99.5,32.6,104,33.2 M111.3,31.5c0,0-1.5,2.2-5.4,2.4v-0.9
					c2.3-0.7,2.4-4.2-0.6-6.3l-4.6-2.8c-4.4-2.7-5.6-6.4-3.1-9.7c0,0,1.5-2,5.3-2.3v0.9c-2.3,0.6-2.8,3.7,0.6,5.9l4.6,2.9
					C112.2,24.2,113.5,28.2,111.3,31.5"/>
				<path id="Fill-9" class="st0" d="M139.4,22.8c0,6.7-4.3,9.9-10,10.2v-0.8c2.6-0.4,3.7-3,3.7-9c0-7-1.6-9.3-5.3-9.3
					c-3,0-4.6,2.4-4.6,5.6V25c0,4.9,2.1,6.9,4.4,7.3V33c-2.3-0.2-4.3-0.9-5.5-2.2c-1.6,1.4-4.3,2.3-4.3,1.6V5.2
					c0-1.5-0.4-2.1-2.3-2.8V1.6l7.8-1.6v15.7c1.4-2.6,4.7-3.7,6.8-3.7C134.9,12,139.4,15.9,139.4,22.8"/>
				<path id="Fill-11" class="st0" d="M161.8,27.6l0.8,0.4c-0.7,2.4-3.4,6-9.3,6c-5.9,0-9.9-5.6-9.9-10.9c0-6.1,3.8-10.6,9.4-11v0.7
					c-2.2,0.9-3.6,5.1-3.6,9h8.8c0-4.9-1.3-8.2-3.3-9V12c6,0.3,8.8,3.7,8.8,10.6h-14.2c0.4,4.5,2.6,6.8,5.6,7.5
					C157.1,30.6,160.7,29.7,161.8,27.6"/>
				<path id="Fill-13" class="st0" d="M182.2,12.8c1.4,1.2,1.5,3.3,0.3,4.7c-1.2,1.4-3.3,1.6-4.7,0.4c-0.7-0.6-1-1.4-1-2.2
					c0-0.4-1-0.4-2.1,0.7l-0.4-0.6c1.9-2.5,3.4-3.1,4.4-3.5C179.5,11.8,181.2,12,182.2,12.8 M175.1,32.2V33h-9.3v-0.8
					c1.8-0.5,1.8-2.4,1.8-4.7v-9.9c0-1.5-0.4-2.2-2.2-3.1v-0.8l7.9-1.8v15.6C173.3,30.1,173.5,31.8,175.1,32.2"/>
				<g id="Group-17" transform="translate(184.350000, 12.000000)">
					<g id="Clip-16">
					</g>
					<defs>
						<filter id="Adobe_OpacityMaskFilter" filterUnits="userSpaceOnUse" x="0.3" y="0.1" width="24.4" height="32.9">
							<feColorMatrix  type="matrix" values="1 0 0 0 0  0 1 0 0 0  0 0 1 0 0  0 0 0 1 0"/>
						</filter>
					</defs>
					<mask maskUnits="userSpaceOnUse" x="0.3" y="0.1" width="24.4" height="32.9" id="mask-2_1_">
						<g class="st1">
							<polygon id="path-1_1_" class="st0" points="0.3,0.1 24.7,0.1 24.7,33 0.3,33 							"/>
						</g>
					</mask>
					<path id="Fill-15" class="st2" d="M23.8,4.4c-1,0.9-2.6,0.8-3.5-0.2c-0.4-0.5-0.6-1.1-0.5-1.8c0-0.4-1-0.1-1.8,0.8
						c1.1,1.1,1.6,2.5,1.6,4.1c0,3.4-2.7,6.2-7.5,6.6v-0.8c1.5-0.3,2.4-1.6,2.4-5.7c0-4-1-5.4-2.4-5.7V0.9c2.4,0.1,4.1,0.8,5.4,1.9
						c1.3-1.8,3.1-2.4,4.1-2.6c0.8-0.2,1.8,0.1,2.4,0.8C25,1.9,24.9,3.5,23.8,4.4 M21.3,24.4c0,0-0.2,3.3-4.2,5.9l-0.4-0.7
						c2.1-1.7,1.9-3.9,1.9-3.9s-0.4-2.3-3.6-2.3h-6c-1.8,0-7-0.3-7-4.7c0,0,0-4,4.2-5.6c-2.2-1-3.6-3.2-3.6-5.6
						c0-3.3,2.7-6.2,7.5-6.5v0.8C8.7,1.9,7.9,3.2,7.9,7.4c0,4.1,1,5.4,2.4,5.7V14C9,13.9,8,13.7,7.2,13.3c-1.2,0.5-3.9,4.1,0.8,4.1
						h6.1C17.1,17.4,22.2,17.8,21.3,24.4 M15.3,30.5l0.4,0.7c-6,2.9-13.3,2.4-14.9-1.1c-1.3-2.6,0.4-5.3,2.4-6.9l0.5,0.5
						c-1.7,2.1,0.7,4.7,0.7,4.7C6.5,31.2,11.3,32.3,15.3,30.5"/>
				</g>
			</g>
		</g>
	</g>
</g>
</svg>
