<?xml version="1.0" encoding="UTF-8"?>
<svg width="210px" height="63px" viewBox="0 0 210 63" version="1.1" xmlns="http://www.w3.org/2000/svg" xmlns:xlink="http://www.w3.org/1999/xlink">
    <!-- Generator: Sketch 59 (86127) - https://sketch.com -->
    <title>Group 19</title>
    <desc>Created with Sketch.</desc>
    <g id="Page-3" stroke="none" stroke-width="1" fill="none" fill-rule="evenodd">
        <g id="New" transform="translate(-850.000000, -5842.000000)">
            <g id="Group-75" transform="translate(-12.000000, 5817.000000)">
                <g id="Group-19" transform="translate(862.000000, 25.000000)">
                    <g id="Group-72" transform="translate(-0.000065, 0.307778)" fill="#FFFFFF">
                        <g id="Group-71" transform="translate(0.000000, 16.452642)">
                            <polygon id="Fill-1" points="22.183674 0.342070595 22.183674 28.3458514 3.0078125 0.342070595 -3.07309733e-13 0.342070595 -3.07309733e-13 34.8227086 3.45069257 34.8227086 3.45069257 6.74549697 22.6766301 34.8227086 25.6343666 34.8227086 25.6343666 0.342070595"></polygon>
                            <path d="M42.9375802,12.7549963 C40.3745988,12.7549963 38.2297846,13.5185467 36.5044383,15.0456476 C34.7790921,16.5727485 33.7515583,18.5514813 33.4231377,20.9811963 L51.81144,20.9811963 C51.4823691,18.3877241 50.4801985,16.368052 48.8042779,14.9228297 C47.1277069,13.4776074 45.1727914,12.7549963 42.9375802,12.7549963 M42.9375802,9.60202038 C46.5853252,9.60202038 49.5352576,10.8919332 51.7860769,13.4698095 C54.0368961,16.0476857 55.1639316,19.0934397 55.1639316,22.6070713 C55.1639316,22.9690267 55.130114,23.4771939 55.0644299,24.1341722 L33.4231377,24.1341722 C33.7515583,26.6301698 34.811609,28.6082528 36.6032897,30.0697209 C38.3943201,31.5318387 40.6035177,32.2622478 43.233484,32.2622478 C45.1071073,32.2622478 46.7251478,31.8762487 48.0895566,31.1042505 C49.453315,30.3329021 50.4801985,29.323066 51.1702069,28.0747423 L54.0297424,29.7493546 C52.9456292,31.4902496 51.4661106,32.869839 49.5924873,33.887473 C47.7201647,34.9051071 45.5825042,35.4139241 43.1840583,35.4139241 C39.3060937,35.4139241 36.1506546,34.2000414 33.7190414,31.7690267 C31.2867779,29.3393118 30.0712965,26.2526185 30.0712965,22.5082971 C30.0712965,18.8309083 31.2705194,15.759811 33.6696157,13.2969547 C36.0680617,10.8340984 39.1578167,9.60202038 42.9375802,9.60202038" id="Fill-2"></path>
                            <polygon id="Fill-4" points="87.5524468 10.1936907 90.6994316 10.1936907 83.3128944 34.8229036 79.7633505 34.8229036 73.3276073 14.7795422 66.891864 34.8229036 63.3598792 34.8229036 55.9037559 10.1936907 59.1534941 10.1936907 65.3186968 30.6360479 71.7772019 10.1936907 75.1355465 10.1936907 81.5251157 30.4177049"></polygon>
                            <path d="M95.4396791,16.582236 C95.4396791,17.6797991 95.9391385,18.5518712 96.9387078,19.1978024 C97.9376267,19.8443834 99.143353,20.3681465 100.557187,20.7710412 C101.969721,21.1745857 103.383556,21.5774804 104.79609,21.9816748 C106.209274,22.3845695 107.401343,23.1149786 108.374899,24.1709526 C109.347804,25.2275764 109.834907,26.6110648 109.834907,28.320768 C109.834907,30.4229685 109.003775,32.1307222 107.345414,33.4440289 C105.685101,34.7579855 103.540287,35.4136642 100.911622,35.4136642 C98.5450422,35.4136642 96.5322466,34.8886014 94.8725845,33.8384759 C93.2129223,32.7870507 92.0540203,31.4243568 91.3971791,29.7497445 L94.1578632,28.1238694 C94.617652,29.4046847 95.4474831,30.4145208 96.6473564,31.1533776 C97.8465794,31.8922345 99.2682179,32.2619879 100.911622,32.2619879 C102.521858,32.2619879 103.869358,31.9422715 104.954122,31.3015389 C106.038885,30.662106 106.580617,29.6698154 106.580617,28.3240171 C106.580617,27.2089086 106.08701,26.3225402 105.101098,25.6662118 C104.114535,25.0105332 102.914012,24.4802717 101.501478,24.0767272 C100.087644,23.6738325 98.6757601,23.270288 97.2632264,22.8673933 C95.8500422,22.4638488 94.6508193,21.7444868 93.6649071,20.710607 C92.6789949,19.6760774 92.1860389,18.3218313 92.1860389,16.6465692 C92.1860389,14.6444425 92.9827027,12.9685305 94.5773311,11.6220824 C96.1706588,10.2762842 98.1834544,9.60241028 100.615718,9.60241028 C102.620059,9.60241028 104.378573,10.0540422 105.890608,10.9573062 C107.401993,11.8605701 108.519274,13.0835504 109.2431,14.6268971 L106.531841,16.203385 C105.577796,13.9049358 103.605971,12.7547364 100.615718,12.7547364 C99.2025338,12.7547364 97.986402,13.0861498 96.967973,13.7483267 C95.9488936,14.4098538 95.4396791,15.3547068 95.4396791,16.582236" id="Fill-6"></path>
                            <path d="M120.974999,28.148433 C122.453867,29.6436922 124.310582,30.3896972 126.545793,30.3896972 C128.780354,30.3896972 130.637068,29.6436922 132.116587,28.148433 C133.595455,26.6544735 134.334889,24.7745148 134.334889,22.5079073 C134.334889,20.2425993 133.595455,18.3626407 132.116587,16.8686811 C130.637068,15.3747216 128.780354,14.6267671 126.545793,14.6267671 C124.310582,14.6267671 122.453867,15.3747216 120.974999,16.8686811 C119.496781,18.3626407 118.756697,20.2425993 118.756697,22.5079073 C118.756697,24.7745148 119.496781,26.6544735 120.974999,28.148433 M127.383428,9.55354305 C130.768437,9.55354305 133.661139,10.8018668 136.060236,13.2972146 C138.459332,15.7925624 139.658555,18.8630099 139.658555,22.5079073 C139.658555,26.1216128 138.459332,29.1829626 136.060236,31.695206 C133.661139,34.2074494 130.768437,35.4635711 127.383428,35.4635711 C123.637482,35.4635711 120.761038,34.0677359 118.756697,31.2760656 L118.756697,34.8228386 L113.432381,34.8228386 L113.432381,0.342200561 L118.756697,0.342200561 L118.756697,13.6910117 C120.761038,10.9324826 123.637482,9.55354305 127.383428,9.55354305" id="Fill-8"></path>
                            <path d="M147.151682,20.4393029 L161.645111,20.4393029 C161.282873,18.4371762 160.453693,16.9263211 159.155618,15.9073874 C157.857544,14.8904032 156.337704,14.3809363 154.595449,14.3809363 C152.624275,14.3809363 150.980221,14.9228947 149.665889,16.0061616 C148.351556,17.0900783 147.51327,18.5677921 147.151682,20.4393029 L147.151682,20.4393029 Z M147.201108,24.7743199 C147.595863,26.6464806 148.499182,28.0832551 149.912367,29.0846433 C151.325551,30.0866814 153.050247,30.5864008 155.089056,30.5864008 C157.915424,30.5864008 160.034875,29.5694166 161.448059,27.5328489 L165.835238,30.0938296 C163.402975,33.6737439 159.804655,35.4633762 155.03963,35.4633762 C151.029647,35.4633762 147.792916,34.2403958 145.327485,31.7937853 C142.862704,29.3478245 141.630965,26.2520337 141.630965,22.5083621 C141.630965,18.8303234 142.846446,15.752078 145.278709,13.2723261 C147.710323,10.793224 150.831944,9.5533481 154.644875,9.5533481 C158.260103,9.5533481 161.226944,10.8179176 163.543448,13.3464067 C165.860601,15.8755457 167.018853,18.9453434 167.018853,22.5577492 C167.018853,23.1166032 166.952519,23.8554601 166.821801,24.7743199 L147.201108,24.7743199 Z" id="Fill-10"></path>
                            <path d="M175.546213,14.3312893 C176.893713,11.2777374 179.424177,9.74998671 183.138257,9.74998671 L183.138257,15.5133304 C181.100098,15.3827145 179.325976,15.866838 177.813941,16.9670004 C176.301905,18.0671629 175.546213,19.8814887 175.546213,22.4099778 L175.546213,34.8230335 L170.221897,34.8230335 L170.221897,10.1938207 L175.546213,10.1938207 L175.546213,14.3312893 Z" id="Fill-12"></path>
                            <path d="M190.656357,27.7791345 C192.151484,29.2568483 194.016003,29.9957052 196.251864,29.9957052 C198.485774,29.9957052 200.350943,29.2568483 201.84672,27.7791345 C203.341847,26.3014208 204.089736,24.4624014 204.089736,22.2620765 C204.089736,20.0624014 203.341847,18.2227322 201.84672,16.7456683 C200.350943,15.2673047 198.485774,14.5284478 196.251864,14.5284478 C194.016003,14.5284478 192.151484,15.2673047 190.656357,16.7456683 C189.15993,18.2227322 188.413342,20.0624014 188.413342,22.2620765 C188.413342,24.4624014 189.15993,26.3014208 190.656357,27.7791345 L190.656357,27.7791345 Z M204.089736,10.1934308 L209.3152,10.1934308 L209.3152,33.6906395 C209.3152,37.4336612 208.08281,40.3072102 205.61803,42.3106365 C203.153249,44.3127633 200.161695,45.3154512 196.645969,45.3154512 C190.960065,45.3154512 187.065192,43.3282706 184.961999,39.3545591 L189.546881,36.6954541 C190.828697,39.2232935 193.227143,40.4885128 196.74417,40.4885128 C199.044415,40.4885128 200.843899,39.8887195 202.142624,38.6897829 C203.440048,37.4908463 204.089736,35.8246817 204.089736,33.6906395 L204.089736,30.6858248 C202.084744,33.5424782 199.225859,34.9708049 195.51243,34.9708049 C192.02792,34.9708049 189.086442,33.7315788 186.687345,31.2518269 C184.288249,28.7727249 183.089026,25.776358 183.089026,22.2620765 C183.089026,18.7490947 184.288249,15.752078 186.687345,13.2723261 C189.086442,10.793224 192.02792,9.5533481 195.51243,9.5533481 C199.225859,9.5533481 202.084744,10.9816748 204.089736,13.838978 L204.089736,10.1934308 Z" id="Fill-14"></path>
                        </g>
                        <path d="M193.094734,24.355681 C191.350528,23.494656 189.337082,24.0587086 185.551465,21.9838009 C184.873813,21.612098 184.228678,21.5022768 183.601753,21.9825012 C180.704497,24.2016712 177.221149,26.1388149 174.271217,24.355681 C171.632146,22.7616476 168.377705,28.1282343 165.661244,26.6550694 C164.423001,25.983145 163.865785,23.8160684 161.044078,23.0384752 C158.22237,22.2608821 156.270458,21.7630842 154.84947,22.5532777 C156.334841,19.8974218 162.005984,14.388586 164.087715,12.521624 C165.909962,10.8873011 165.949633,9.48756696 164.425241,7.48544024 C164.274362,7.28659221 164.075359,7.12023569 163.947893,6.90969072 C163.352834,5.92389837 162.818906,6.00447731 161.988425,6.76802775 C156.515832,11.8003125 150.993813,16.7793112 145.487403,21.7752054 C145.118661,22.1098679 144.744717,22.4380322 144.072268,23.0384752 C144.364269,20.3156869 144.108687,17.8606285 145.296854,15.578425 C145.527724,15.134591 146.131237,14.6121276 145.676001,14.1085092 C144.912504,13.2650297 144.048205,12.4917318 143.129278,11.8230565 C142.839878,11.6125116 142.492597,12.1947594 142.220756,12.4657386 C140.525325,14.1578963 138.806482,15.8292595 137.171533,17.5779524 C136.466567,18.3324052 135.731035,18.7879362 134.699599,18.6189803 C132.420815,18.2440283 130.767656,19.2025278 129.165224,20.7738171 C126.507943,23.3809357 123.647758,25.7807585 120.680266,28.0798576 C123.309582,25.1926622 126.013687,22.3678505 128.537648,19.3909786 C129.861736,17.8294367 131.276871,16.8800348 133.376812,17.1061757 C134.66318,17.2452394 135.613323,16.6850858 136.471119,15.6927951 C138.264751,13.6172376 140.208611,11.6729458 142.023053,9.61493367 C142.635021,8.92221472 142.99791,8.91441676 143.678163,9.52850626 C145.381398,11.0653546 147.219253,12.4546915 148.901026,14.0129842 C149.780933,14.828521 150.305756,14.8759586 151.154447,13.9519001 C153.179599,11.7489759 155.325063,9.6565228 157.425004,7.52183073 C157.769683,7.17092245 158.079244,6.63026375 158.622927,6.72188981 C160.165528,6.97987238 160.841229,5.91675024 161.61253,4.93290738 C162.658923,3.59815624 163.78921,2.32513896 164.775122,0.948798683 C165.409852,0.0637300081 165.769489,0.223588227 166.419177,0.93710174 C171.357192,6.35928458 176.365443,11.7190837 181.271592,17.1705089 C182.196372,18.1978904 182.660063,18.1543518 183.521111,17.1659601 C184.991524,15.4783512 185.058509,15.525139 186.813121,16.9378697 C192.214177,21.2884826 197.051389,24.1048465 202.448543,28.4613079 C202.392614,28.5392875 202.477158,28.3833283 202.421229,28.4613079 C198.139405,26.3493599 198.960781,26.4897232 193.094734,24.355681 Z" id="Fill-16"></path>
                    </g>
                    <g id="Group-18" transform="translate(119.307432, 0.342201)"></g>
                </g>
            </g>
        </g>
    </g>
</svg>