<?xml version="1.0" encoding="UTF-8"?>
<svg width="18px" height="22px" viewBox="0 0 18 22" version="1.1" xmlns="http://www.w3.org/2000/svg" xmlns:xlink="http://www.w3.org/1999/xlink">
    <!-- Generator: Sketch 55.2 (78181) - https://sketchapp.com -->
    <title>Shape</title>
    <desc>Created with Sketch.</desc>
    <g id="Page-1" stroke="none" stroke-width="1" fill="none" fill-rule="evenodd">
        <g id="Product-Listing-2" transform="translate(-1477.000000, -861.000000)" fill="#1D2228" fill-rule="nonzero">
            <g id="Group-5" transform="translate(690.000000, 406.000000)">
                <g id="Group-10" transform="translate(570.000000, 0.000000)">
                    <path d="M234.604499,474.017178 L233.344785,459.831902 C233.317791,459.516973 233.052352,459.278528 232.741922,459.278528 L230.150511,459.278528 C230.114519,456.912065 228.179959,455 225.804499,455 C223.429039,455 221.494479,456.912065 221.458487,459.278528 L218.867076,459.278528 C218.552147,459.278528 218.291207,459.516973 218.264213,459.831902 L217.004499,474.017178 C217.004499,474.035174 217,474.05317 217,474.071166 C217,475.686299 218.480164,477 220.302249,477 L231.306748,477 C233.128834,477 234.608998,475.686299 234.608998,474.071166 C234.608998,474.05317 234.608998,474.035174 234.604499,474.017178 Z M225.804499,456.214724 C227.509611,456.214724 228.899796,457.582413 228.935787,459.278528 L222.673211,459.278528 C222.709202,457.582413 224.099387,456.214724 225.804499,456.214724 Z M231.306748,475.785276 L220.302249,475.785276 C219.159509,475.785276 218.23272,475.029448 218.214724,474.09816 L219.42045,460.497751 L221.453988,460.497751 L221.453988,462.342331 C221.453988,462.679755 221.723926,462.949693 222.06135,462.949693 C222.398773,462.949693 222.668712,462.679755 222.668712,462.342331 L222.668712,460.497751 L228.935787,460.497751 L228.935787,462.342331 C228.935787,462.679755 229.205726,462.949693 229.543149,462.949693 C229.880573,462.949693 230.150511,462.679755 230.150511,462.342331 L230.150511,460.497751 L232.184049,460.497751 L233.394274,474.09816 C233.376278,475.029448 232.44499,475.785276 231.306748,475.785276 Z" id="Shape"></path>
                </g>
            </g>
        </g>
    </g>
</svg>