<?xml version="1.0" encoding="UTF-8"?>
<svg width="40px" height="20px" viewBox="0 0 40 20" version="1.1" xmlns="http://www.w3.org/2000/svg" xmlns:xlink="http://www.w3.org/1999/xlink">
    <!-- Generator: Sketch 54.1 (76490) - https://sketchapp.com -->
    <title>Combined Shape</title>
    <desc>Created with Sketch.</desc>
    <defs>
        <linearGradient x1="0.000121966299%" y1="49.9998742%" x2="99.9989505%" y2="49.9998742%" id="linearGradient-1">
            <stop stop-color="#FF5B36" offset="0%"></stop>
            <stop stop-color="#FF0069" offset="100%"></stop>
        </linearGradient>
    </defs>
    <g id="Page-1" stroke="none" stroke-width="1" fill="none" fill-rule="evenodd">
        <g id="Product-Details-Copy" transform="translate(-1454.000000, -3343.000000)" fill="url(#linearGradient-1)" fill-rule="nonzero">
            <g id="Group-42" transform="translate(0.000000, 3221.000000)">
                <g id="::::Footer">
                    <g id="::::::Subscribe-form" transform="translate(405.000000, 99.000000)">
                        <g id="Group-3" transform="translate(566.000000, 2.000000)">
                            <g id="note-(1)" transform="translate(483.000000, 21.000000)">
                                <path d="M38.6134091,19.9351136 C38.5988636,19.9379545 38.5843182,19.9396591 38.5695455,19.9417045 C38.5567045,19.9435227 38.5440909,19.9460227 38.5310227,19.9472727 C38.5030682,19.95 38.475,19.9514773 38.4469318,19.9514773 L11.6003409,19.9514773 C11.1295455,19.9514773 10.7480682,19.57 10.7480682,19.0992045 L10.7480682,14.1865909 L6.34465909,14.1865909 C5.87386364,14.1865909 5.49238636,13.8051136 5.49238636,13.3343182 C5.49238636,12.8635227 5.87386364,12.4820455 6.34465909,12.4820455 L10.7480682,12.4820455 L10.7480682,11.4406818 C10.7480682,10.9698864 11.1295455,10.5884091 11.6003409,10.5884091 C12.0711364,10.5884091 12.4526136,10.9698864 12.4526136,11.4406818 L12.4526136,17.0415909 L19.9170455,9.57715909 C19.9525,9.54181818 19.9905682,9.51102273 20.0301136,9.48318182 L12.4527273,2.77443182 L12.4527273,6.1375 C12.4527273,6.60829545 12.07125,6.98977273 11.6004545,6.98977273 C11.1296591,6.98977273 10.7481818,6.60829545 10.7481818,6.1375 L10.7481818,0.881590909 C10.7481818,0.876931818 10.74875,0.872386364 10.7488636,0.867727273 C10.7490909,0.851704545 10.7501136,0.835795455 10.75125,0.819886364 C10.7521591,0.807386364 10.7528409,0.794886364 10.7543182,0.782613636 C10.7561364,0.767840909 10.7586364,0.753068182 10.7611364,0.738295455 C10.7634091,0.725340909 10.7653409,0.712272727 10.7681818,0.699431818 C10.77125,0.685681818 10.7751136,0.672159091 10.77875,0.658522727 C10.7823864,0.645227273 10.7857955,0.631931818 10.79,0.618863636 C10.7942045,0.605909091 10.7992045,0.593181818 10.8040909,0.580340909 C10.8089773,0.567272727 10.8138636,0.553977273 10.8194318,0.541136364 C10.8247727,0.528977273 10.8309091,0.517045455 10.8368182,0.505113636 C10.8432955,0.492045455 10.8495455,0.478977273 10.8567045,0.46625 C10.8628409,0.455227273 10.8697727,0.444545455 10.8764773,0.43375 C10.8846591,0.420568182 10.8928409,0.4075 10.9017045,0.394772727 C10.9085227,0.385 10.9160227,0.375454545 10.9232955,0.365909091 C10.9332955,0.352840909 10.9432955,0.339886364 10.9539773,0.3275 C10.9569318,0.324090909 10.9593182,0.320340909 10.9623864,0.316931818 C10.9675,0.311136364 10.9731818,0.306136364 10.9785227,0.300454545 C10.9892045,0.289090909 11,0.277840909 11.01125,0.267045455 C11.0211364,0.2575 11.03125,0.248522727 11.0414773,0.239545455 C11.0518182,0.230568182 11.0622727,0.221818182 11.0729545,0.213295455 C11.0846591,0.203977273 11.0965909,0.195113636 11.1086364,0.186590909 C11.1188636,0.179431818 11.1292045,0.172386364 11.1397727,0.165568182 C11.1526136,0.157386364 11.1655682,0.149431818 11.17875,0.141931818 C11.1896591,0.135681818 11.2006818,0.129772727 11.2119318,0.123977273 C11.2251136,0.117272727 11.2384091,0.110795455 11.2518182,0.104772727 C11.2638636,0.0993181818 11.2760227,0.0943181818 11.2884091,0.0894318182 C11.3014773,0.0842045455 11.3147727,0.0794318182 11.3280682,0.0748863636 C11.3410227,0.0705681818 11.3540909,0.0664772727 11.3673864,0.0627272727 C11.3807955,0.0588636364 11.3943182,0.0554545455 11.4078409,0.0522727273 C11.4211364,0.0492045455 11.4345455,0.0463636364 11.4480682,0.0439772727 C11.4625,0.0413636364 11.4769318,0.0392045455 11.4914773,0.0373863636 C11.5042045,0.0356818182 11.5169318,0.0342045455 11.5297727,0.0331818182 C11.5459091,0.0318181818 11.5620455,0.0311363636 11.5782955,0.0306818182 C11.5857955,0.0304545455 11.5930682,0.0295454545 11.6005682,0.0295454545 L38.4471591,0.0295454545 C38.9179545,0.0295454545 39.2994318,0.411022727 39.2994318,0.881818182 L39.2994318,19.0986364 C39.2994318,19.1270455 39.2979545,19.1553409 39.2951136,19.1836364 C39.2939773,19.1951136 39.2918182,19.2063636 39.2902273,19.2177273 C39.2879545,19.2338636 39.2860227,19.25 39.2828409,19.2660227 C39.2802273,19.2795455 39.2763636,19.2927273 39.2730682,19.3061364 C39.2696591,19.3197727 39.2667045,19.3334091 39.2626136,19.3468182 C39.2586364,19.36 39.2536364,19.3728409 39.2489773,19.3857955 C39.2442045,19.3990909 39.2398864,19.4123864 39.2344318,19.4254545 C39.2293182,19.4376136 39.2234091,19.4493182 39.2178409,19.4611364 C39.2115909,19.4744318 39.2056818,19.4879545 39.1986364,19.5010227 C39.1926136,19.5122727 39.1856818,19.5229545 39.1792045,19.5338636 C39.1714773,19.5468182 39.1640909,19.5598864 39.1556818,19.5725 C39.1478409,19.5843182 39.1389773,19.5953409 39.1305682,19.6067045 C39.1223864,19.6177273 39.1147727,19.6288636 39.1060227,19.6395455 C39.0910227,19.6577273 39.0751136,19.675 39.05875,19.6918182 C39.0556818,19.6951136 39.0529545,19.6986364 39.0497727,19.7018182 C39.0467045,19.7048864 39.0434091,19.7073864 39.0403409,19.7103409 C39.0232955,19.7269318 39.0057955,19.7430682 38.9873864,19.7581818 C38.9773864,19.7663636 38.9669318,19.7735227 38.9567045,19.7811364 C38.9445455,19.7902273 38.9328409,19.7995455 38.9202273,19.8079545 C38.9084091,19.8159091 38.8961364,19.8227273 38.8839773,19.83 C38.8721591,19.8370455 38.8606818,19.8444318 38.8485227,19.8509091 C38.8363636,19.8575 38.82375,19.8629545 38.8113636,19.8688636 C38.7986364,19.8748864 38.7860227,19.88125 38.7729545,19.8867045 C38.7607955,19.8918182 38.7484091,19.8957955 38.7361364,19.9002273 C38.7222727,19.9052273 38.7084091,19.9105682 38.6942045,19.9148864 C38.6820455,19.9186364 38.6695455,19.92125 38.6571591,19.9244318 C38.6426136,19.9281818 38.6281818,19.9321591 38.6134091,19.9351136 Z M37.5947727,17.0417045 L37.5947727,1.73420455 L13.84875,1.73420455 L25.0355682,11.6385227 L34.6243182,3.50329545 C34.9835227,3.19863636 35.52125,3.24295455 35.8255682,3.60170455 C36.1301136,3.96068182 36.0860227,4.49840909 35.7271591,4.80295455 L30.1154545,9.56397727 C30.1203409,9.56852273 30.1254545,9.5725 30.1302273,9.57727273 L37.5947727,17.0417045 Z M21.1225,10.7827273 L13.6580682,18.2471591 L36.3893182,18.2471591 L28.9248864,10.7827273 C28.8865909,10.7444318 28.8532955,10.7031818 28.82375,10.66 L25.5752273,13.4161364 C25.4159091,13.5511364 25.2198864,13.6185227 25.02375,13.6185227 C24.8217045,13.6185227 24.6198864,13.5469318 24.45875,13.4043182 L21.2711364,10.5821591 C21.2326136,10.6542045 21.1832955,10.7219318 21.1225,10.7827273 Z M2.34375,5.03920455 C1.87295455,5.03920455 1.49147727,4.65772727 1.49147727,4.18693182 C1.49147727,3.71613636 1.87295455,3.33465909 2.34375,3.33465909 L8.80681818,3.33465909 C9.27761364,3.33465909 9.65909091,3.71613636 9.65909091,4.18693182 C9.65909091,4.65772727 9.27761364,5.03920455 8.80681818,5.03920455 L2.34375,5.03920455 Z M7.10227273,16.0806818 C7.57306818,16.0806818 7.95454545,16.4621591 7.95454545,16.9329545 C7.95454545,17.40375 7.57306818,17.7852273 7.10227273,17.7852273 L0.852272727,17.7852273 C0.381477273,17.7852273 6.66133815e-15,17.40375 6.66133815e-15,16.9329545 C6.66133815e-15,16.4621591 0.381477273,16.0806818 0.852272727,16.0806818 L7.10227273,16.0806818 Z M0.852272727,9.73590909 C0.381477273,9.73590909 -2.84217094e-14,9.35443182 -2.84217094e-14,8.88363636 C-2.84217094e-14,8.41284091 0.381477273,8.03136364 0.852272727,8.03136364 L15.24625,8.03136364 C15.7170455,8.03136364 16.0985227,8.41284091 16.0985227,8.88363636 C16.0985227,9.35443182 15.7170455,9.73590909 15.24625,9.73590909 L0.852272727,9.73590909 Z" id="Combined-Shape"></path>
                            </g>
                        </g>
                    </g>
                </g>
            </g>
        </g>
    </g>
</svg>